<svg width="97" height="31" viewBox="0 0 97 31" fill="none" xmlns="http://www.w3.org/2000/svg">
<path d="M0.420455 5.98011H9.3267V30H15.4062V5.98011H24.3125V0.90909H0.420455V5.98011ZM31.919 17.3864C31.9332 14.5739 33.6094 12.9261 36.0526 12.9261C38.4815 12.9261 39.9446 14.517 39.9304 17.1875V30H45.9815V16.108C45.9815 11.0227 42.9986 7.89773 38.4531 7.89773C35.2145 7.89773 32.8707 9.48864 31.8906 12.0312H31.6349V8.18182H25.8679V30H31.919V17.3864ZM58.7905 30.3551C62.3132 30.3551 64.1456 28.3239 64.9837 26.5057H65.2393V30H71.2053V0.90909H65.1683V11.8466H64.9837C64.174 10.071 62.4268 7.89773 58.7763 7.89773C53.9893 7.89773 49.9411 11.6193 49.9411 19.1193C49.9411 26.4205 53.8189 30.3551 58.7905 30.3551ZM60.7081 25.5398C57.7393 25.5398 56.12 22.8977 56.12 19.0909C56.12 15.3125 57.7109 12.7131 60.7081 12.7131C63.6484 12.7131 65.2962 15.1989 65.2962 19.0909C65.2962 22.983 63.62 25.5398 60.7081 25.5398ZM76.1804 30H82.2315V17.6562C82.2315 14.9716 84.1918 13.125 86.8622 13.125C87.7003 13.125 88.8509 13.267 89.419 13.4517V8.08239C88.8793 7.95455 88.1264 7.86932 87.5156 7.86932C85.0724 7.86932 83.0696 9.28977 82.2741 11.9886H82.0469V8.18182H76.1804V30ZM93.5845 30.3693C95.4027 30.3693 96.9794 28.8494 96.9936 26.9602C96.9794 25.0994 95.4027 23.5795 93.5845 23.5795C91.7095 23.5795 90.1612 25.0994 90.1754 26.9602C90.1612 28.8494 91.7095 30.3693 93.5845 30.3693Z" fill="white"/>
</svg>
